<?xml version="1.0" standalone="no"?><!DOCTYPE svg PUBLIC "-//W3C//DTD SVG 1.1//EN" "http://www.w3.org/Graphics/SVG/1.1/DTD/svg11.dtd"><svg t="1771668529753" class="icon" viewBox="0 0 1024 1024" version="1.1" xmlns="http://www.w3.org/2000/svg" p-id="4400" xmlns:xlink="http://www.w3.org/1999/xlink" width="64" height="64"><path d="M298.7 221.8c-29.4 0-53.3 23.9-53.3 53.3v524.7c0 29.4 23.9 53.3 53.3 53.3h426.7c29.4 0 53.3-23.9 53.3-53.3V275.1c0-29.4-23.9-53.3-53.3-53.3h-64v-64h64c64.8 0 117.3 52.5 117.3 117.3v524.7c0 64.8-52.5 117.3-117.3 117.3H298.7c-64.8 0-117.3-52.5-117.3-117.3V275.1c0-64.8 52.5-117.3 117.3-117.3h64v64h-64z" fill="#ffffff" p-id="4401"></path><path d="M640 106.9H384c-23.6 0-42.7 19.1-42.7 42.7v85.3c0 23.6 19.1 42.7 42.7 42.7h256c23.6 0 42.7-19.1 42.7-42.7v-85.3c0-23.6-19.1-42.7-42.7-42.7z m-21.3 106.6H405.3v-42.7h213.3v42.7zM341.3 473.1c0-17.7 14.3-32 32-32h277.3c17.7 0 32 14.3 32 32s-14.3 32-32 32H373.3c-17.6 0-32-14.3-32-32zM341.3 643.8c0-17.7 14.3-32 32-32h217.3c17.7 0 32 14.3 32 32s-14.3 32-32 32H373.3c-17.6 0-32-14.3-32-32z" fill="#ffffff" p-id="4402"></path></svg>