<?xml version="1.0" standalone="no"?><!DOCTYPE svg PUBLIC "-//W3C//DTD SVG 1.1//EN" "http://www.w3.org/Graphics/SVG/1.1/DTD/svg11.dtd"><svg t="1771736199675" class="icon" viewBox="0 0 1024 1024" version="1.1" xmlns="http://www.w3.org/2000/svg" p-id="3469" xmlns:xlink="http://www.w3.org/1999/xlink" width="64" height="64"><path d="M718.784 522.112l6.4 16.256c2.752 6.976 5.76 13.76 9.088 20.416l2.368 4.544 2.816 5.184a256 256 0 0 0 99.84 99.84l5.184 2.816a255.808 255.808 0 0 0 24.96 11.456l16.256 6.4a16 16 0 0 1 0 29.76l-16.256 6.4a254.272 254.272 0 0 0-24.96 11.456l-5.184 2.816a256 256 0 0 0-99.84 99.84l-2.816 5.184a255.808 255.808 0 0 0-11.456 24.96l-6.4 16.256a16 16 0 0 1-29.76 0l-6.4-16.256a254.272 254.272 0 0 0-11.456-24.96l-2.752-5.184a256 256 0 0 0-105.088-102.656l-4.544-2.368c-6.656-3.264-13.44-6.336-20.416-9.088l-16.256-6.4a16 16 0 0 1 0-29.76l16.256-6.4c6.976-2.752 13.76-5.76 20.416-9.088l4.544-2.368a255.04 255.04 0 0 0 107.84-107.84l2.368-4.544c3.328-6.656 6.336-13.44 9.088-20.416l6.4-16.256a16 16 0 0 1 29.76 0z m-320-384l24.512 62.208a256 256 0 0 0 144.256 144.192l62.08 24.512a16 16 0 0 1 0 29.76l-62.08 24.512a256 256 0 0 0-144.256 144.256l-24.512 62.08a16 16 0 0 1-29.76 0l-24.512-62.08A256 256 0 0 0 200.32 423.296l-62.208-24.512a16 16 0 0 1 0-29.76l62.208-24.512A256 256 0 0 0 344.512 200.32l24.512-62.208a16 16 0 0 1 29.76 0z" p-id="3470" fill="#f9acc9"></path></svg>