<?xml version="1.0" standalone="no"?><!DOCTYPE svg PUBLIC "-//W3C//DTD SVG 1.1//EN" "http://www.w3.org/Graphics/SVG/1.1/DTD/svg11.dtd"><svg t="1771687708535" class="icon" viewBox="0 0 1140 1024" version="1.1" xmlns="http://www.w3.org/2000/svg" p-id="7232" xmlns:xlink="http://www.w3.org/1999/xlink" width="71.25" height="64"><path d="M78.644881 258.485437c-31.92675-10.992501-38.716236-55.366643-37.827137-74.441866 12.285737-21.176731 123.261504-70.481332 185.417634 5.496251 40.171126 53.588444 99.01334 149.287868 99.013339 149.287868s-103.862973 42.67677-167.878127 62.317783C62.317784 425.878601 1.616544 320.722393 4.203015 296.312574c10.588365-15.922962 42.11098-47.768885 74.441866-37.827137" fill="#FCECEC" p-id="7233"></path><path d="M341.899124 67.409898c0.565791-33.785776 40.65609-53.911753 59.084695-59.003868 23.924856 5.172942 105.156208 95.456942 52.052727 178.062357-38.554582 54.720025-111.379904 140.316047-111.379904 140.316047s-72.663667-85.596022-111.137422-140.396874c-52.941827-82.686242 28.370353-172.889415 52.295209-177.98153 18.428605 5.172942 58.438077 25.298919 59.003868 59.084695" fill="#FCECEC" p-id="7234"></path><path d="M604.991712 258.808746c32.330886-9.86092 63.853501 22.06583 74.361039 37.988791 2.505644 24.409819-58.276423 129.4852-153.248402 104.590418-64.015155-19.721841-167.7973-62.560265-167.7973-62.560265s59.003868-95.618597 99.174994-149.126214c62.236956-75.896756 173.131897-26.4305 185.417633-5.253769 0.808272 19.075223-5.981214 63.449365-37.988791 74.361039" fill="#FCECEC" p-id="7235"></path><path d="M504.200174 568.134502c19.398532 27.642908-1.212408 67.490725-13.094009 82.44376-22.389139 9.941748-141.124319-15.437998-146.782225-113.400584-0.969927-66.924935 7.597758-178.951456 7.597759-178.951457s109.116742 26.511327 172.485279 48.253848c91.415581 35.806457 78.644881 156.48149 62.317783 174.748442-17.943642 6.627832-62.156129 13.902281-82.44376-13.094009" fill="#FCECEC" p-id="7236"></path><path d="M178.951456 567.89202c-20.368458 26.99629-64.580946 19.721841-82.524587 13.013182-16.327098-18.266951-28.936143-139.022812 62.479438-174.667614 63.368537-21.661694 172.566106-48.011366 172.566106-48.011367s8.486858 112.026521 7.355277 178.951457c-5.738732 97.962586-124.55474 123.180677-146.943879 113.238929-11.881601-14.953035-32.411714-54.88168-13.013182-82.524587" fill="#FCECEC" p-id="7237"></path><path d="M663.429789 97.477623c-12.851527-6.627832-12.932355-25.864709-11.396637-33.947431 6.547004-8.244376 56.659878-22.227484 78.321572 13.902281 13.6598 25.218091 32.654195 69.511406 32.654195 69.511406s-46.718131 11.639119-75.088483 16.003789c-41.868498 4.607151-61.024548-43.808351-58.438077-53.992581 5.496251-6.062041 20.853422-17.620333 33.94743-11.396637" fill="#FCECEC" p-id="7238"></path><path d="M787.014603 32.81585c2.343989-14.306417 20.61094-20.287631 28.774488-21.338385 9.86092 3.718052 38.635409 47.04144 10.992502 78.806535-19.802668 20.853422-56.013261 52.53769-56.013261 52.537691s-25.460573-40.817744-38.392927-66.520799C715.07838 37.907964 755.168679 4.768806 765.676218 4.041361c7.516931 3.313916 23.197411 14.387244 21.338385 28.774489" fill="#FCECEC" p-id="7239"></path><path d="M886.67456 130.455127c14.306417-2.182335 25.703055 13.336491 29.178625 20.772594-0.484963 10.507538-32.81585 51.244455-71.532086 34.755703-25.945536-12.366564-67.248244-37.018865-67.248244-37.018865s30.956824-36.857211 51.406109-57.064014c31.118478-28.289526 75.088484-0.404136 78.96819 9.375957-0.889099 8.163549-6.547004 26.511327-20.772594 29.178625" fill="#FCECEC" p-id="7240"></path><path d="M824.599258 255.333175c6.466177 12.932355-4.768806 28.532007-10.669192 34.189913-10.103402 2.828953-58.92304-15.357171-55.204989-57.225669 3.718052-28.45118 14.387244-75.411793 14.387244-75.411793s44.616623 18.105296 70.158024 31.199306c36.533902 20.853422 23.601547 71.289605 15.518825 77.998263-8.001894 1.697372-27.238772 2.02068-34.189912-10.669192" fill="#FCECEC" p-id="7241"></path><path d="M686.708027 234.964717c-10.345884 10.184229-28.612834 4.283842-35.806456 0.404136-5.81956-8.729339-3.637225-60.782066 37.423001-70.158023 28.208698-5.253769 76.220065-9.618439 76.220065-9.618439s-3.394743 48.011366-8.001895 76.381719c-8.567685 41.22188-60.539585 44.454969-69.349751 38.877891-4.122188-7.112795-10.345884-25.298919-0.404136-35.806457" fill="#FCECEC" p-id="7242"></path><path d="M627.542505 467.747099c-16.973715-2.343989-24.733128-23.844029-26.188018-33.462467 4.041361-11.800774 54.558371-47.203094 93.032126-15.437998 25.298919 22.793275 64.015155 64.7426 64.015155 64.7426s-47.688057 31.441787-77.674955 47.526403c-44.939932 21.661694-85.515195-24.894783-86.646775-37.261347 3.718052-8.971821 16.327098-27.966217 33.462467-26.188018" fill="#FCECEC" p-id="7243"></path><path d="M740.134817 346.748757c-2.990607-16.892888 15.033862-30.875997 23.682375-35.240666 12.447391 0.242482 61.751993 37.342174 43.404215 83.736995-13.902281 31.118478-41.787671 80.908043-41.787671 80.908044s-44.616623-35.644802-69.188097-59.165522c-34.513221-36.048938-2.748125-88.990765 8.729339-93.921225 9.699266 0.808272 31.603441 6.951141 35.240666 23.682374" fill="#FCECEC" p-id="7244"></path><path d="M890.069303 416.421817c15.114689-8.082722 34.028258 4.768806 40.817744 11.639119 3.637225 11.881601-16.407925 70.319678-66.19749 67.167417-33.866604-3.556398-89.799037-14.791381-89.799037-14.791381s20.04515-53.42679 34.917357-84.060305c23.601547-43.970006 83.817823-30.148552 91.981372-20.772594 2.263162 9.456784 3.233089 32.250059-11.639119 40.817744" fill="#FCECEC" p-id="7245"></path><path d="M870.104981 580.581893c12.366564 11.881601 5.981214 33.785776 1.535717 42.434288-10.184229 7.112795-71.936222 6.142868-84.302787-42.191807-7.031968-33.300813-13.6598-90.041519-13.659799-90.041518s57.064015 2.586471 90.768964 7.193622c49.06212 8.890994 54.558371 70.400505 48.17302 81.069698-8.244376 5.092115-29.663588 13.013182-42.434288 1.535717" fill="#FCECEC" p-id="7246"></path><path d="M707.803931 612.346989c-7.516931 15.437998-30.310206 16.165443-39.847818 14.548899-9.941748-7.516931-28.047044-66.520799 14.063936-93.274608 29.501934-16.973715 81.393007-40.817744 81.393006-40.817744s15.195517 55.043334 21.176731 88.505802c6.708659 49.466256-50.112874 73.633594-62.236956 70.885468-7.355277-6.304523-21.500039-24.167338-14.548899-39.847817" fill="#FCECEC" p-id="7247"></path><path d="M449.237667 731.64796c-14.387244-12.20491-8.971821-36.695556-4.607152-46.556477 10.75002-8.567685 78.644881-11.719946 95.618597 40.494435 10.103402 36.129766 21.338385 97.962586 21.338385 97.962586s-62.883574 1.131581-100.225748-1.535717c-54.558371-6.38535-64.904254-73.552767-58.599731-85.757676 8.729339-6.142868 31.684269-16.327098 46.556476-4.607151" fill="#FCECEC" p-id="7248"></path><path d="M625.36017 685.495619c7.193622-17.458679 32.169232-19.883495 42.838425-18.751914 11.477465 7.516931 35.483148 71.12795-8.971821 103.458837-31.199305 20.772595-86.565948 50.597837-86.565948 50.597837s-20.530113-59.408004-29.501934-95.861078c-10.830847-53.911753 49.870392-84.383614 63.449364-82.201279 8.567685 6.38535 25.379746 25.056437 18.751914 42.838424" fill="#FCECEC" p-id="7249"></path><path d="M723.726892 838.744021c18.832741 1.374063 28.855316 24.490646 31.118479 34.917357-3.637225 13.255663-56.659878 55.689952-101.195675 23.439893-29.340279-23.278238-74.846002-66.682453-74.846002-66.682453s50.193701-37.907964 82.039624-57.629805c47.930539-26.915463 95.699424 21.338385 97.800932 34.917357-3.47557 10.103402-16.003789 31.845923-34.917358 31.118478" fill="#FCECEC" p-id="7250"></path><path d="M608.386455 979.625858c4.445497 18.347778-14.387244 34.998185-23.601547 40.332781-13.740627 0.646618-70.481332-36.695556-53.588444-88.990765 13.094009-35.159839 40.332781-91.819717 40.332781-91.819717s51.567764 35.968111 80.180598 60.216276c40.413608 37.180519 9.29513 97.639277-2.990607 103.782145-10.669193-0.161654-35.240666-5.415423-40.332781-23.601547" fill="#FCECEC" p-id="7251"></path><path d="M438.730129 913.428368c-16.084616 9.941748-37.665483-2.828953-45.667377-9.941747-4.849633-12.851527 13.094009-78.4024 68.056516-78.4024 37.423001 1.616544 99.740785 9.941748 99.740784 9.941748s-18.347778 60.135449-32.492541 94.891152c-22.874102 49.95122-89.960691 38.958718-99.659957 29.259452-3.152261-10.184229-5.738732-35.159839 9.941747-45.667377" fill="#FCECEC" p-id="7252"></path><path d="M154.703291 765.514563c-11.881601-4.122188-14.387244-20.530113-14.063935-27.642908 4.607151-7.84024 45.748204-26.188018 68.864788 2.020681 14.872208 19.883495 36.776383 55.44747 36.776383 55.44747s-38.554582 15.842134-62.317783 23.116584c-35.240666 9.214303-57.791459-29.825243-56.821533-38.877891 3.960534-5.900387 15.68048-17.70116 27.642908-14.063936" fill="#FCECEC" p-id="7253"></path><path d="M252.504223 694.629095c0.242482-12.528218 15.114689-20.04515 21.904175-21.904176 8.890994 1.939853 39.039545 35.483148 19.317705 66.116663-14.306417 20.368458-41.383535 52.052727-41.383535 52.052727s-26.99629-31.765096-41.302707-52.133554c-19.641013-30.714342 10.507538-64.17681 19.398532-66.116663 6.870313 1.939853 21.742521 9.375957 21.904175 21.904175" fill="#FCECEC" p-id="7254"></path><path d="M350.1435 765.676218c11.962428-3.637225 23.682374 8.163549 27.642908 14.063935 0.969927 9.052648-21.661694 48.092194-56.90236 38.797064-23.763202-7.355277-62.317784-23.197411-62.317784-23.197411s21.904176-35.483148 36.857211-55.366643c23.116584-28.208698 64.338464-9.780093 68.864788-1.939853 0.323309 7.112795-2.263162 23.52072-14.063936 27.642908" fill="#FCECEC" p-id="7255"></path><path d="M312.720499 880.531692c7.193622 10.265056-0.484963 25.056437-4.849633 30.633514-8.325203 3.718052-52.376036-5.738732-54.477544-42.110979-0.404136-24.894783 2.828953-66.439972 2.828953-66.439972s40.494435 9.86092 64.015155 17.943642c33.947431 13.255663 29.178625 58.114768 23.116584 64.904255-6.627832 2.505644-23.116584 5.172942-30.633515-4.849633" fill="#FCECEC" p-id="7256"></path><path d="M191.964638 880.450864c-7.516931 10.022575-24.005683 7.274449-30.633515 4.849633-6.062041-6.789486-10.75002-51.648591 23.197411-64.823427 23.52072-8.001894 64.095982-17.862815 64.095983-17.862815s3.152261 41.626016 2.748125 66.439972c-2.182335 36.372247-46.233168 45.748204-54.558371 42.030152-4.36467-5.577078-12.043255-20.368458-4.849633-30.633515" fill="#FCECEC" p-id="7257"></path><path d="M808.595469 725.26261c-12.7707-6.789486-12.689873-25.945536-11.073328-33.947431 6.627832-8.163549 56.740706-21.580867 77.917436 14.629726 13.417318 25.298919 31.92675 69.592233 31.92675 69.592233s-46.718131 11.154156-75.007656 15.195517c-41.787671 4.203015-60.37793-44.212487-57.710632-54.396717 5.496251-5.981214 20.934249-17.377851 33.94743-11.073328" fill="#FCECEC" p-id="7258"></path><path d="M932.422764 662.055727c2.505644-14.22559 20.772595-20.04515 28.855316-21.015077 9.780093 3.798879 38.069619 47.283921 10.18423 78.644882-19.883495 20.530113-56.33657 51.891073-56.33657 51.891072s-25.056437-40.979399-37.665483-66.682453c-16.892888-38.392928 23.439893-71.12795 33.866604-71.693741 7.436104 3.394743 23.035757 14.548899 21.015076 28.855317" fill="#FCECEC" p-id="7259"></path><path d="M1030.870313 760.341621c14.306417-2.02068 25.460573 13.498145 28.936144 20.934249-0.565791 10.426711-33.219986 50.840319-71.612914 34.028258-25.703055-12.609046-66.76328-37.503828-66.76328-37.503828s31.199305-36.453074 51.729418-56.417397c31.36096-27.88539 74.846002 0.323309 78.644881 10.103402-0.969927 8.082722-6.708659 26.349672-20.934249 28.936143" fill="#FCECEC" p-id="7260"></path><path d="M967.825085 884.249743c6.304523 12.932355-5.011287 28.45118-10.992502 33.947431-10.103402 2.667298-58.599732-15.842134-54.477543-57.629805 4.041361-28.370353 15.033862-75.088484 15.033862-75.088484s44.293314 18.428605 69.67306 31.765096c36.210593 21.176731 22.874102 71.289605 14.710554 77.917437-8.001894 1.616544-27.157945 1.778199-33.947431-10.992502" fill="#FCECEC" p-id="7261"></path><path d="M830.499645 862.668877c-10.345884 10.022575-28.612834 4.041361-35.72563 0-5.738732-8.810167-2.990607-60.620412 37.988792-69.592233 28.208698-4.93046 76.05841-8.890994 76.05841-8.890994s-3.798879 47.849712-8.729339 76.05841c-8.890994 40.979399-60.782066 43.808351-69.592233 38.069619-4.041361-7.112795-10.022575-25.298919 0-35.725629" fill="#FCECEC" p-id="7262"></path><path d="M879.723419 267.538085c-11.881601-1.616544-17.297024-16.650407-18.347778-23.359065 2.828953-8.244376 38.069619-33.058331 64.985082-10.830847 17.70116 15.922962 44.778278 45.182414 44.778278 45.182413s-33.300813 22.06583-54.235062 33.300813c-31.36096 15.195517-59.81214-17.297024-60.539585-25.945536 2.586471-6.304523 11.396637-19.560186 23.359065-18.347778" fill="#FCECEC" p-id="7263"></path><path d="M958.368301 182.831163c-2.101508-11.800774 10.426711-21.580867 16.488752-24.652301 8.729339 0.161654 43.242561 26.026364 30.391033 58.438077-9.699266 21.742521-29.178625 56.579051-29.178625 56.579051s-31.199305-24.813955-48.415503-41.302707c-24.167338-25.137264-2.02068-62.156129 5.981214-65.6317 6.789486 0.565791 22.146657 4.768806 24.652301 16.488752" fill="#FCECEC" p-id="7264"></path><path d="M1063.2012 231.40832c10.588365-5.657905 23.763202 3.313916 28.532007 8.082721 2.586471 8.325203-11.396637 49.142947-46.233168 46.960613-23.682374-2.505644-62.802747-10.265056-62.802746-10.265057s13.983108-37.342174 24.328992-58.761386c16.488752-30.714342 58.518904-21.176731 64.257636-14.629726 1.616544 6.627832 2.263162 22.550793-8.082721 28.532007" fill="#FCECEC" p-id="7265"></path><path d="M1049.379746 346.102139c8.648512 8.325203 4.203015 23.601547 1.131581 29.663588-7.112795 5.011287-50.274528 4.36467-59.003868-29.421106-4.93046-23.278238-9.699266-62.883574-9.699266-62.883574s39.847818 1.697372 63.449365 4.93046c34.351567 6.142868 38.231273 49.142947 33.704949 56.579051-5.81956 3.556398-20.691767 9.133475-29.663588 1.131581" fill="#FCECEC" p-id="7266"></path><path d="M936.059989 368.410451c-5.253769 10.830847-21.176731 11.31581-27.88539 10.184229-6.951141-5.253769-19.641013-46.475649 9.780094-65.146736 20.61094-11.881601 56.821533-28.612834 56.821532-28.612835s10.669193 38.473755 14.872208 61.832821c4.768806 34.513221-34.917357 51.486937-43.404215 49.547083-5.172942-4.36467-15.033862-16.892888-10.184229-27.88539" fill="#FCECEC" p-id="7267"></path><path d="M986.334517 407.126687c-3.47557-4.607151-0.242482-11.558292 1.697372-14.22559 3.798879-1.859026 24.248165 1.778199 25.864709 18.509433 0.565791 11.477465-0.161654 30.714342-0.161654 30.714342s-18.832741-3.879706-29.825243-7.193622c-15.842134-5.577078-14.468072-26.268845-11.800774-29.501934 2.990607-1.212408 10.588365-2.748125 14.22559 1.697371" fill="#FCECEC" p-id="7268"></path><path d="M1042.024469 405.106007c3.313916-4.768806 10.911674-3.798879 14.063936-2.748126 2.90978 2.990607 5.81956 23.601547-9.618439 30.310206-10.75002 4.122188-29.259452 9.29513-29.259452 9.29513s-2.182335-19.15605-2.424817-30.552687c0.404136-16.812061 20.530113-21.904176 24.40982-20.287632 2.101508 2.505644 5.900387 9.214303 2.748125 14.063936" fill="#FCECEC" p-id="7269"></path><path d="M1061.180519 457.401216c5.496251 1.697372 6.951141 9.214303 6.951141 12.528218-1.939853 3.718052-20.691767 12.851527-31.765096 0.242482-7.193622-8.890994-17.862815-24.894783-17.862815-24.894783s17.539506-8.001894 28.370353-11.719946c16.084616-4.849633 27.157945 12.7707 26.834636 16.973715-1.697372 2.828953-6.951141 8.40603-12.528219 6.951141" fill="#FCECEC" p-id="7270"></path><path d="M1017.291341 491.752782c0.080827 5.81956-6.627832 9.456784-9.780093 10.507538-4.122188-0.727445-18.59026-15.68048-10.022575-30.148551 6.223696-9.618439 18.186124-24.733128 18.186124-24.733128s13.013182 14.22559 19.883495 23.359065c9.618439 13.821454-3.798879 29.744416-7.84024 30.79517-3.152261-0.727445-10.184229-3.960534-10.507538-9.780094" fill="#FCECEC" p-id="7271"></path><path d="M971.058173 460.715131c-5.496251 1.859026-11.073329-3.394743-13.013181-6.062041-0.565791-4.122188 9.133475-22.550793 25.5414-18.832741 11.073329 2.990607 29.097798 9.618439 29.097798 9.618439s-9.456784 16.731234-16.003789 26.188018c-10.184229 13.417318-29.501934 5.657905-31.684269 2.101507-0.242482-3.233089 0.646618-10.911674 6.062041-13.013182" fill="#FCECEC" p-id="7272"></path><path d="M1025.131581 542.269792c-4.445497-5.900387-0.242482-14.710553 2.182335-18.105296 4.849633-2.343989 30.956824 2.263162 32.977504 23.601547 0.727445 14.629726-0.242482 39.120373-0.242482 39.120373s-24.005683-4.93046-38.069618-9.133476c-20.206804-7.031968-18.428605-33.543295-15.033863-37.665482 3.879706-1.616544 13.498145-3.556398 18.105297 2.182334" fill="#FCECEC" p-id="7273"></path><path d="M1096.097877 539.683321c4.203015-6.062041 13.902281-4.849633 17.862814-3.47557 3.718052 3.879706 7.436104 30.067724-12.204909 38.635409-13.6598 5.253769-37.261347 11.881601-37.261347 11.881601s-2.748125-24.409819-3.071434-38.958718c0.484963-21.419212 26.188018-27.88539 31.199305-25.864709 2.748125 3.152261 7.516931 11.719946 3.475571 17.862815" fill="#FCECEC" p-id="7274"></path><path d="M1120.507696 606.365775c7.031968 2.182335 8.890994 11.800774 8.890994 15.922961-2.505644 4.687979-26.349672 16.407925-40.494436 0.323309-9.214303-11.396637-22.793275-31.765096-22.793274-31.765096s22.308312-10.184229 36.129765-14.953035c20.530113-6.142868 34.594048 16.327098 34.27074 21.661694-2.182335 3.556398-8.810167 10.75002-15.922962 8.890994" fill="#FCECEC" p-id="7275"></path><path d="M1064.575262 650.174126c0.161654 7.355277-8.40603 12.124082-12.447391 13.33649-5.253769-0.969927-23.682374-19.964322-12.7707-38.473754 8.001894-12.285737 23.197411-31.522614 23.197411-31.522615s16.569579 18.105296 25.379746 29.744416c12.20491 17.620333-4.768806 37.988792-10.022575 39.282027-4.041361-0.969927-12.932355-5.092115-13.336491-12.447391" fill="#FCECEC" p-id="7276"></path><path d="M1005.571395 610.56879c-6.951141 2.424816-14.144763-4.283842-16.56958-7.678586-0.727445-5.334596 11.639119-28.693662 32.573369-24.08651 14.144763 3.798879 37.099692 12.285737 37.099692 12.285737s-12.124082 21.338385-20.449286 33.38164c-13.013182 17.054543-37.584655 7.193622-40.413608 2.667298-0.323309-4.122188 0.808272-13.902281 7.678586-16.569579" fill="#FCECEC" p-id="7277"></path></svg>