<?xml version="1.0" standalone="no"?><!DOCTYPE svg PUBLIC "-//W3C//DTD SVG 1.1//EN" "http://www.w3.org/Graphics/SVG/1.1/DTD/svg11.dtd"><svg t="1771737459306" class="icon" viewBox="0 0 1024 1024" version="1.1" xmlns="http://www.w3.org/2000/svg" p-id="4694" xmlns:xlink="http://www.w3.org/1999/xlink" width="64" height="64"><path d="M0 0h1024v1024H0z" fill="#f9acc9" fill-opacity="0" p-id="4695"></path><path d="M725.333333 181.333333H298.666667A202.922667 202.922667 0 0 0 96 384v256A202.922667 202.922667 0 0 0 298.666667 842.666667h426.666666A202.922667 202.922667 0 0 0 928 640V384A202.922667 202.922667 0 0 0 725.333333 181.333333zM298.666667 245.333333h426.666666a138.88 138.88 0 0 1 128 85.888l-264.533333 176.384a138.453333 138.453333 0 0 1-153.6 0L170.666667 331.221333A138.709333 138.709333 0 0 1 298.666667 245.333333z m426.666666 533.333334H298.666667A138.837333 138.837333 0 0 1 160 640V401.066667l239.573333 159.744a202.197333 202.197333 0 0 0 224.853334 0L864 401.066667V640A138.837333 138.837333 0 0 1 725.333333 778.666667z" fill="#f9acc9" p-id="4696"></path></svg>